<mxfile host="app.diagrams.net" agent="Mozilla/5.0 (Macintosh; Intel Mac OS X 10_15_7) AppleWebKit/537.36 (KHTML, like Gecko) Chrome/138.0.0.0 Safari/537.36 Edg/138.0.0.0" version="28.0.7">
  <diagram name="第 1 页" id="KlJC6zhfKSW6DCbhA5ee">
    <mxGraphModel dx="1056" dy="599" grid="1" gridSize="10" guides="1" tooltips="1" connect="1" arrows="1" fold="1" page="1" pageScale="1" pageWidth="850" pageHeight="1100" math="1" shadow="0">
      <root>
        <mxCell id="0" />
        <mxCell id="1" parent="0" />
        <mxCell id="Ckq702j_ndM2lnB-2Poi-1" value="" style="endArrow=classic;html=1;rounded=0;" parent="1" edge="1">
          <mxGeometry width="50" height="50" relative="1" as="geometry">
            <mxPoint x="200" y="220" as="sourcePoint" />
            <mxPoint x="410" y="220" as="targetPoint" />
          </mxGeometry>
        </mxCell>
        <mxCell id="Ckq702j_ndM2lnB-2Poi-2" value="" style="endArrow=classic;html=1;rounded=0;" parent="1" edge="1">
          <mxGeometry width="50" height="50" relative="1" as="geometry">
            <mxPoint x="200" y="220" as="sourcePoint" />
            <mxPoint x="200" y="40" as="targetPoint" />
          </mxGeometry>
        </mxCell>
        <mxCell id="Ckq702j_ndM2lnB-2Poi-14" value="" style="group" parent="1" vertex="1" connectable="0">
          <mxGeometry x="200" y="200" width="220" height="25" as="geometry" />
        </mxCell>
        <mxCell id="Ckq702j_ndM2lnB-2Poi-3" value="" style="rounded=0;whiteSpace=wrap;html=1;" parent="Ckq702j_ndM2lnB-2Poi-14" vertex="1">
          <mxGeometry width="20" height="20" as="geometry" />
        </mxCell>
        <mxCell id="Ckq702j_ndM2lnB-2Poi-4" value="" style="rounded=0;whiteSpace=wrap;html=1;" parent="Ckq702j_ndM2lnB-2Poi-14" vertex="1">
          <mxGeometry x="20" width="20" height="20" as="geometry" />
        </mxCell>
        <mxCell id="Ckq702j_ndM2lnB-2Poi-5" value="" style="rounded=0;whiteSpace=wrap;html=1;" parent="Ckq702j_ndM2lnB-2Poi-14" vertex="1">
          <mxGeometry x="60" width="20" height="20" as="geometry" />
        </mxCell>
        <mxCell id="Ckq702j_ndM2lnB-2Poi-6" value="" style="rounded=0;whiteSpace=wrap;html=1;" parent="Ckq702j_ndM2lnB-2Poi-14" vertex="1">
          <mxGeometry x="40" width="20" height="20" as="geometry" />
        </mxCell>
        <mxCell id="Ckq702j_ndM2lnB-2Poi-8" value="" style="rounded=0;whiteSpace=wrap;html=1;" parent="Ckq702j_ndM2lnB-2Poi-14" vertex="1">
          <mxGeometry x="80" width="20" height="20" as="geometry" />
        </mxCell>
        <mxCell id="Ckq702j_ndM2lnB-2Poi-9" value="" style="rounded=0;whiteSpace=wrap;html=1;" parent="Ckq702j_ndM2lnB-2Poi-14" vertex="1">
          <mxGeometry x="140" width="20" height="20" as="geometry" />
        </mxCell>
        <mxCell id="Ckq702j_ndM2lnB-2Poi-10" value="" style="rounded=0;whiteSpace=wrap;html=1;" parent="Ckq702j_ndM2lnB-2Poi-14" vertex="1">
          <mxGeometry x="120" width="20" height="20" as="geometry" />
        </mxCell>
        <mxCell id="Ckq702j_ndM2lnB-2Poi-11" value="" style="rounded=0;whiteSpace=wrap;html=1;" parent="Ckq702j_ndM2lnB-2Poi-14" vertex="1">
          <mxGeometry x="160" width="20" height="20" as="geometry" />
        </mxCell>
        <mxCell id="Ckq702j_ndM2lnB-2Poi-12" value="" style="rounded=0;whiteSpace=wrap;html=1;" parent="Ckq702j_ndM2lnB-2Poi-14" vertex="1">
          <mxGeometry x="100" width="20" height="20" as="geometry" />
        </mxCell>
        <mxCell id="Ckq702j_ndM2lnB-2Poi-117" value="&lt;font face=&quot;Times New Roman&quot; style=&quot;font-size: 10px;&quot;&gt;Time&lt;/font&gt;" style="text;html=1;align=center;verticalAlign=middle;resizable=0;points=[];autosize=1;strokeColor=none;fillColor=none;" parent="Ckq702j_ndM2lnB-2Poi-14" vertex="1">
          <mxGeometry x="180" y="-5" width="40" height="30" as="geometry" />
        </mxCell>
        <mxCell id="Ckq702j_ndM2lnB-2Poi-15" value="" style="group" parent="1" vertex="1" connectable="0">
          <mxGeometry x="200" y="180" width="200" height="20" as="geometry" />
        </mxCell>
        <mxCell id="Ckq702j_ndM2lnB-2Poi-16" value="" style="rounded=0;whiteSpace=wrap;html=1;" parent="Ckq702j_ndM2lnB-2Poi-15" vertex="1">
          <mxGeometry width="20" height="20" as="geometry" />
        </mxCell>
        <mxCell id="Ckq702j_ndM2lnB-2Poi-17" value="" style="rounded=0;whiteSpace=wrap;html=1;" parent="Ckq702j_ndM2lnB-2Poi-15" vertex="1">
          <mxGeometry x="20" width="20" height="20" as="geometry" />
        </mxCell>
        <mxCell id="Ckq702j_ndM2lnB-2Poi-18" value="" style="rounded=0;whiteSpace=wrap;html=1;" parent="Ckq702j_ndM2lnB-2Poi-15" vertex="1">
          <mxGeometry x="60" width="20" height="20" as="geometry" />
        </mxCell>
        <mxCell id="Ckq702j_ndM2lnB-2Poi-19" value="" style="rounded=0;whiteSpace=wrap;html=1;" parent="Ckq702j_ndM2lnB-2Poi-15" vertex="1">
          <mxGeometry x="40" width="20" height="20" as="geometry" />
        </mxCell>
        <mxCell id="Ckq702j_ndM2lnB-2Poi-20" value="" style="rounded=0;whiteSpace=wrap;html=1;" parent="Ckq702j_ndM2lnB-2Poi-15" vertex="1">
          <mxGeometry x="80" width="20" height="20" as="geometry" />
        </mxCell>
        <mxCell id="Ckq702j_ndM2lnB-2Poi-21" value="" style="rounded=0;whiteSpace=wrap;html=1;" parent="Ckq702j_ndM2lnB-2Poi-15" vertex="1">
          <mxGeometry x="140" width="20" height="20" as="geometry" />
        </mxCell>
        <mxCell id="Ckq702j_ndM2lnB-2Poi-22" value="" style="rounded=0;whiteSpace=wrap;html=1;" parent="Ckq702j_ndM2lnB-2Poi-15" vertex="1">
          <mxGeometry x="120" width="20" height="20" as="geometry" />
        </mxCell>
        <mxCell id="Ckq702j_ndM2lnB-2Poi-23" value="" style="rounded=0;whiteSpace=wrap;html=1;" parent="Ckq702j_ndM2lnB-2Poi-15" vertex="1">
          <mxGeometry x="160" width="20" height="20" as="geometry" />
        </mxCell>
        <mxCell id="Ckq702j_ndM2lnB-2Poi-24" value="" style="rounded=0;whiteSpace=wrap;html=1;" parent="Ckq702j_ndM2lnB-2Poi-15" vertex="1">
          <mxGeometry x="100" width="20" height="20" as="geometry" />
        </mxCell>
        <mxCell id="Ckq702j_ndM2lnB-2Poi-26" value="" style="group" parent="1" vertex="1" connectable="0">
          <mxGeometry x="200" y="140" width="200" height="20" as="geometry" />
        </mxCell>
        <mxCell id="Ckq702j_ndM2lnB-2Poi-27" value="" style="rounded=0;whiteSpace=wrap;html=1;" parent="Ckq702j_ndM2lnB-2Poi-26" vertex="1">
          <mxGeometry width="20" height="20" as="geometry" />
        </mxCell>
        <mxCell id="Ckq702j_ndM2lnB-2Poi-28" value="" style="rounded=0;whiteSpace=wrap;html=1;" parent="Ckq702j_ndM2lnB-2Poi-26" vertex="1">
          <mxGeometry x="20" width="20" height="20" as="geometry" />
        </mxCell>
        <mxCell id="Ckq702j_ndM2lnB-2Poi-29" value="" style="rounded=0;whiteSpace=wrap;html=1;" parent="Ckq702j_ndM2lnB-2Poi-26" vertex="1">
          <mxGeometry x="60" width="20" height="20" as="geometry" />
        </mxCell>
        <mxCell id="Ckq702j_ndM2lnB-2Poi-30" value="" style="rounded=0;whiteSpace=wrap;html=1;" parent="Ckq702j_ndM2lnB-2Poi-26" vertex="1">
          <mxGeometry x="40" width="20" height="20" as="geometry" />
        </mxCell>
        <mxCell id="Ckq702j_ndM2lnB-2Poi-31" value="" style="rounded=0;whiteSpace=wrap;html=1;" parent="Ckq702j_ndM2lnB-2Poi-26" vertex="1">
          <mxGeometry x="80" width="20" height="20" as="geometry" />
        </mxCell>
        <mxCell id="Ckq702j_ndM2lnB-2Poi-32" value="" style="rounded=0;whiteSpace=wrap;html=1;" parent="Ckq702j_ndM2lnB-2Poi-26" vertex="1">
          <mxGeometry x="140" width="20" height="20" as="geometry" />
        </mxCell>
        <mxCell id="Ckq702j_ndM2lnB-2Poi-33" value="" style="rounded=0;whiteSpace=wrap;html=1;" parent="Ckq702j_ndM2lnB-2Poi-26" vertex="1">
          <mxGeometry x="120" width="20" height="20" as="geometry" />
        </mxCell>
        <mxCell id="Ckq702j_ndM2lnB-2Poi-34" value="" style="rounded=0;whiteSpace=wrap;html=1;" parent="Ckq702j_ndM2lnB-2Poi-26" vertex="1">
          <mxGeometry x="160" width="20" height="20" as="geometry" />
        </mxCell>
        <mxCell id="Ckq702j_ndM2lnB-2Poi-35" value="" style="rounded=0;whiteSpace=wrap;html=1;" parent="Ckq702j_ndM2lnB-2Poi-26" vertex="1">
          <mxGeometry x="100" width="20" height="20" as="geometry" />
        </mxCell>
        <mxCell id="Ckq702j_ndM2lnB-2Poi-37" value="" style="group" parent="1" vertex="1" connectable="0">
          <mxGeometry x="200" y="160" width="200" height="20" as="geometry" />
        </mxCell>
        <mxCell id="Ckq702j_ndM2lnB-2Poi-38" value="" style="rounded=0;whiteSpace=wrap;html=1;" parent="Ckq702j_ndM2lnB-2Poi-37" vertex="1">
          <mxGeometry width="20" height="20" as="geometry" />
        </mxCell>
        <mxCell id="Ckq702j_ndM2lnB-2Poi-39" value="" style="rounded=0;whiteSpace=wrap;html=1;" parent="Ckq702j_ndM2lnB-2Poi-37" vertex="1">
          <mxGeometry x="20" width="20" height="20" as="geometry" />
        </mxCell>
        <mxCell id="Ckq702j_ndM2lnB-2Poi-40" value="" style="rounded=0;whiteSpace=wrap;html=1;" parent="Ckq702j_ndM2lnB-2Poi-37" vertex="1">
          <mxGeometry x="60" width="20" height="20" as="geometry" />
        </mxCell>
        <mxCell id="Ckq702j_ndM2lnB-2Poi-41" value="" style="rounded=0;whiteSpace=wrap;html=1;" parent="Ckq702j_ndM2lnB-2Poi-37" vertex="1">
          <mxGeometry x="40" width="20" height="20" as="geometry" />
        </mxCell>
        <mxCell id="Ckq702j_ndM2lnB-2Poi-42" value="" style="rounded=0;whiteSpace=wrap;html=1;" parent="Ckq702j_ndM2lnB-2Poi-37" vertex="1">
          <mxGeometry x="80" width="20" height="20" as="geometry" />
        </mxCell>
        <mxCell id="Ckq702j_ndM2lnB-2Poi-43" value="" style="rounded=0;whiteSpace=wrap;html=1;" parent="Ckq702j_ndM2lnB-2Poi-37" vertex="1">
          <mxGeometry x="140" width="20" height="20" as="geometry" />
        </mxCell>
        <mxCell id="Ckq702j_ndM2lnB-2Poi-44" value="" style="rounded=0;whiteSpace=wrap;html=1;" parent="Ckq702j_ndM2lnB-2Poi-37" vertex="1">
          <mxGeometry x="120" width="20" height="20" as="geometry" />
        </mxCell>
        <mxCell id="Ckq702j_ndM2lnB-2Poi-45" value="" style="rounded=0;whiteSpace=wrap;html=1;" parent="Ckq702j_ndM2lnB-2Poi-37" vertex="1">
          <mxGeometry x="160" width="20" height="20" as="geometry" />
        </mxCell>
        <mxCell id="Ckq702j_ndM2lnB-2Poi-46" value="" style="rounded=0;whiteSpace=wrap;html=1;" parent="Ckq702j_ndM2lnB-2Poi-37" vertex="1">
          <mxGeometry x="100" width="20" height="20" as="geometry" />
        </mxCell>
        <mxCell id="Ckq702j_ndM2lnB-2Poi-48" value="" style="group" parent="1" vertex="1" connectable="0">
          <mxGeometry x="200" y="120" width="200" height="20" as="geometry" />
        </mxCell>
        <mxCell id="Ckq702j_ndM2lnB-2Poi-49" value="" style="rounded=0;whiteSpace=wrap;html=1;" parent="Ckq702j_ndM2lnB-2Poi-48" vertex="1">
          <mxGeometry width="20" height="20" as="geometry" />
        </mxCell>
        <mxCell id="Ckq702j_ndM2lnB-2Poi-50" value="" style="rounded=0;whiteSpace=wrap;html=1;" parent="Ckq702j_ndM2lnB-2Poi-48" vertex="1">
          <mxGeometry x="20" width="20" height="20" as="geometry" />
        </mxCell>
        <mxCell id="Ckq702j_ndM2lnB-2Poi-51" value="" style="rounded=0;whiteSpace=wrap;html=1;" parent="Ckq702j_ndM2lnB-2Poi-48" vertex="1">
          <mxGeometry x="60" width="20" height="20" as="geometry" />
        </mxCell>
        <mxCell id="Ckq702j_ndM2lnB-2Poi-52" value="" style="rounded=0;whiteSpace=wrap;html=1;" parent="Ckq702j_ndM2lnB-2Poi-48" vertex="1">
          <mxGeometry x="40" width="20" height="20" as="geometry" />
        </mxCell>
        <mxCell id="Ckq702j_ndM2lnB-2Poi-53" value="" style="rounded=0;whiteSpace=wrap;html=1;" parent="Ckq702j_ndM2lnB-2Poi-48" vertex="1">
          <mxGeometry x="80" width="20" height="20" as="geometry" />
        </mxCell>
        <mxCell id="Ckq702j_ndM2lnB-2Poi-54" value="" style="rounded=0;whiteSpace=wrap;html=1;" parent="Ckq702j_ndM2lnB-2Poi-48" vertex="1">
          <mxGeometry x="140" width="20" height="20" as="geometry" />
        </mxCell>
        <mxCell id="Ckq702j_ndM2lnB-2Poi-55" value="" style="rounded=0;whiteSpace=wrap;html=1;" parent="Ckq702j_ndM2lnB-2Poi-48" vertex="1">
          <mxGeometry x="120" width="20" height="20" as="geometry" />
        </mxCell>
        <mxCell id="Ckq702j_ndM2lnB-2Poi-56" value="" style="rounded=0;whiteSpace=wrap;html=1;" parent="Ckq702j_ndM2lnB-2Poi-48" vertex="1">
          <mxGeometry x="160" width="20" height="20" as="geometry" />
        </mxCell>
        <mxCell id="Ckq702j_ndM2lnB-2Poi-57" value="" style="rounded=0;whiteSpace=wrap;html=1;" parent="Ckq702j_ndM2lnB-2Poi-48" vertex="1">
          <mxGeometry x="100" width="20" height="20" as="geometry" />
        </mxCell>
        <mxCell id="Ckq702j_ndM2lnB-2Poi-59" value="" style="group" parent="1" vertex="1" connectable="0">
          <mxGeometry x="200" y="100" width="200" height="20" as="geometry" />
        </mxCell>
        <mxCell id="Ckq702j_ndM2lnB-2Poi-60" value="" style="rounded=0;whiteSpace=wrap;html=1;" parent="Ckq702j_ndM2lnB-2Poi-59" vertex="1">
          <mxGeometry width="20" height="20" as="geometry" />
        </mxCell>
        <mxCell id="Ckq702j_ndM2lnB-2Poi-61" value="" style="rounded=0;whiteSpace=wrap;html=1;" parent="Ckq702j_ndM2lnB-2Poi-59" vertex="1">
          <mxGeometry x="20" width="20" height="20" as="geometry" />
        </mxCell>
        <mxCell id="Ckq702j_ndM2lnB-2Poi-62" value="" style="rounded=0;whiteSpace=wrap;html=1;" parent="Ckq702j_ndM2lnB-2Poi-59" vertex="1">
          <mxGeometry x="60" width="20" height="20" as="geometry" />
        </mxCell>
        <mxCell id="Ckq702j_ndM2lnB-2Poi-63" value="" style="rounded=0;whiteSpace=wrap;html=1;" parent="Ckq702j_ndM2lnB-2Poi-59" vertex="1">
          <mxGeometry x="40" width="20" height="20" as="geometry" />
        </mxCell>
        <mxCell id="Ckq702j_ndM2lnB-2Poi-64" value="" style="rounded=0;whiteSpace=wrap;html=1;" parent="Ckq702j_ndM2lnB-2Poi-59" vertex="1">
          <mxGeometry x="80" width="20" height="20" as="geometry" />
        </mxCell>
        <mxCell id="Ckq702j_ndM2lnB-2Poi-65" value="" style="rounded=0;whiteSpace=wrap;html=1;" parent="Ckq702j_ndM2lnB-2Poi-59" vertex="1">
          <mxGeometry x="140" width="20" height="20" as="geometry" />
        </mxCell>
        <mxCell id="Ckq702j_ndM2lnB-2Poi-66" value="" style="rounded=0;whiteSpace=wrap;html=1;" parent="Ckq702j_ndM2lnB-2Poi-59" vertex="1">
          <mxGeometry x="120" width="20" height="20" as="geometry" />
        </mxCell>
        <mxCell id="Ckq702j_ndM2lnB-2Poi-67" value="" style="rounded=0;whiteSpace=wrap;html=1;" parent="Ckq702j_ndM2lnB-2Poi-59" vertex="1">
          <mxGeometry x="160" width="20" height="20" as="geometry" />
        </mxCell>
        <mxCell id="Ckq702j_ndM2lnB-2Poi-68" value="" style="rounded=0;whiteSpace=wrap;html=1;" parent="Ckq702j_ndM2lnB-2Poi-59" vertex="1">
          <mxGeometry x="100" width="20" height="20" as="geometry" />
        </mxCell>
        <mxCell id="Ckq702j_ndM2lnB-2Poi-70" value="" style="group" parent="1" vertex="1" connectable="0">
          <mxGeometry x="200" y="80" width="200" height="20" as="geometry" />
        </mxCell>
        <mxCell id="Ckq702j_ndM2lnB-2Poi-71" value="" style="rounded=0;whiteSpace=wrap;html=1;" parent="Ckq702j_ndM2lnB-2Poi-70" vertex="1">
          <mxGeometry width="20" height="20" as="geometry" />
        </mxCell>
        <mxCell id="Ckq702j_ndM2lnB-2Poi-72" value="" style="rounded=0;whiteSpace=wrap;html=1;" parent="Ckq702j_ndM2lnB-2Poi-70" vertex="1">
          <mxGeometry x="20" width="20" height="20" as="geometry" />
        </mxCell>
        <mxCell id="Ckq702j_ndM2lnB-2Poi-73" value="" style="rounded=0;whiteSpace=wrap;html=1;" parent="Ckq702j_ndM2lnB-2Poi-70" vertex="1">
          <mxGeometry x="60" width="20" height="20" as="geometry" />
        </mxCell>
        <mxCell id="Ckq702j_ndM2lnB-2Poi-74" value="" style="rounded=0;whiteSpace=wrap;html=1;" parent="Ckq702j_ndM2lnB-2Poi-70" vertex="1">
          <mxGeometry x="40" width="20" height="20" as="geometry" />
        </mxCell>
        <mxCell id="Ckq702j_ndM2lnB-2Poi-75" value="" style="rounded=0;whiteSpace=wrap;html=1;" parent="Ckq702j_ndM2lnB-2Poi-70" vertex="1">
          <mxGeometry x="80" width="20" height="20" as="geometry" />
        </mxCell>
        <mxCell id="Ckq702j_ndM2lnB-2Poi-76" value="" style="rounded=0;whiteSpace=wrap;html=1;" parent="Ckq702j_ndM2lnB-2Poi-70" vertex="1">
          <mxGeometry x="140" width="20" height="20" as="geometry" />
        </mxCell>
        <mxCell id="Ckq702j_ndM2lnB-2Poi-77" value="" style="rounded=0;whiteSpace=wrap;html=1;" parent="Ckq702j_ndM2lnB-2Poi-70" vertex="1">
          <mxGeometry x="120" width="20" height="20" as="geometry" />
        </mxCell>
        <mxCell id="Ckq702j_ndM2lnB-2Poi-78" value="" style="rounded=0;whiteSpace=wrap;html=1;" parent="Ckq702j_ndM2lnB-2Poi-70" vertex="1">
          <mxGeometry x="160" width="20" height="20" as="geometry" />
        </mxCell>
        <mxCell id="Ckq702j_ndM2lnB-2Poi-79" value="" style="rounded=0;whiteSpace=wrap;html=1;" parent="Ckq702j_ndM2lnB-2Poi-70" vertex="1">
          <mxGeometry x="100" width="20" height="20" as="geometry" />
        </mxCell>
        <mxCell id="Ckq702j_ndM2lnB-2Poi-81" value="" style="group" parent="1" vertex="1" connectable="0">
          <mxGeometry x="200" y="60" width="200" height="20" as="geometry" />
        </mxCell>
        <mxCell id="Ckq702j_ndM2lnB-2Poi-82" value="" style="rounded=0;whiteSpace=wrap;html=1;" parent="Ckq702j_ndM2lnB-2Poi-81" vertex="1">
          <mxGeometry width="20" height="20" as="geometry" />
        </mxCell>
        <mxCell id="Ckq702j_ndM2lnB-2Poi-83" value="" style="rounded=0;whiteSpace=wrap;html=1;" parent="Ckq702j_ndM2lnB-2Poi-81" vertex="1">
          <mxGeometry x="20" width="20" height="20" as="geometry" />
        </mxCell>
        <mxCell id="Ckq702j_ndM2lnB-2Poi-84" value="" style="rounded=0;whiteSpace=wrap;html=1;" parent="Ckq702j_ndM2lnB-2Poi-81" vertex="1">
          <mxGeometry x="60" width="20" height="20" as="geometry" />
        </mxCell>
        <mxCell id="Ckq702j_ndM2lnB-2Poi-85" value="" style="rounded=0;whiteSpace=wrap;html=1;" parent="Ckq702j_ndM2lnB-2Poi-81" vertex="1">
          <mxGeometry x="40" width="20" height="20" as="geometry" />
        </mxCell>
        <mxCell id="Ckq702j_ndM2lnB-2Poi-86" value="" style="rounded=0;whiteSpace=wrap;html=1;" parent="Ckq702j_ndM2lnB-2Poi-81" vertex="1">
          <mxGeometry x="80" width="20" height="20" as="geometry" />
        </mxCell>
        <mxCell id="Ckq702j_ndM2lnB-2Poi-87" value="" style="rounded=0;whiteSpace=wrap;html=1;" parent="Ckq702j_ndM2lnB-2Poi-81" vertex="1">
          <mxGeometry x="140" width="20" height="20" as="geometry" />
        </mxCell>
        <mxCell id="Ckq702j_ndM2lnB-2Poi-88" value="" style="rounded=0;whiteSpace=wrap;html=1;" parent="Ckq702j_ndM2lnB-2Poi-81" vertex="1">
          <mxGeometry x="120" width="20" height="20" as="geometry" />
        </mxCell>
        <mxCell id="Ckq702j_ndM2lnB-2Poi-89" value="" style="rounded=0;whiteSpace=wrap;html=1;" parent="Ckq702j_ndM2lnB-2Poi-81" vertex="1">
          <mxGeometry x="160" width="20" height="20" as="geometry" />
        </mxCell>
        <mxCell id="Ckq702j_ndM2lnB-2Poi-90" value="" style="rounded=0;whiteSpace=wrap;html=1;" parent="Ckq702j_ndM2lnB-2Poi-81" vertex="1">
          <mxGeometry x="100" width="20" height="20" as="geometry" />
        </mxCell>
        <mxCell id="Ckq702j_ndM2lnB-2Poi-118" value="&lt;font face=&quot;Times New Roman&quot; style=&quot;font-size: 10px;&quot;&gt;Frequency&lt;/font&gt;" style="text;html=1;align=center;verticalAlign=middle;resizable=0;points=[];autosize=1;strokeColor=none;fillColor=none;rotation=-90;" parent="1" vertex="1">
          <mxGeometry x="155" y="40" width="70" height="30" as="geometry" />
        </mxCell>
        <mxCell id="Ckq702j_ndM2lnB-2Poi-119" value="" style="endArrow=none;html=1;rounded=0;entryX=1;entryY=1;entryDx=0;entryDy=0;dashed=1;" parent="1" target="Ckq702j_ndM2lnB-2Poi-5" edge="1">
          <mxGeometry width="50" height="50" relative="1" as="geometry">
            <mxPoint x="280" y="240" as="sourcePoint" />
            <mxPoint x="400" y="170" as="targetPoint" />
          </mxGeometry>
        </mxCell>
        <mxCell id="Ckq702j_ndM2lnB-2Poi-123" value="" style="endArrow=classic;startArrow=classic;html=1;rounded=0;strokeWidth=0.5;" parent="1" edge="1">
          <mxGeometry width="50" height="50" relative="1" as="geometry">
            <mxPoint x="200" y="230" as="sourcePoint" />
            <mxPoint x="280" y="230" as="targetPoint" />
          </mxGeometry>
        </mxCell>
        <mxCell id="Ckq702j_ndM2lnB-2Poi-124" value="&lt;font face=&quot;Times New Roman&quot; style=&quot;font-size: 10px;&quot;&gt;Historical&lt;/font&gt;" style="text;html=1;align=center;verticalAlign=middle;resizable=0;points=[];autosize=1;strokeColor=none;fillColor=none;" parent="1" vertex="1">
          <mxGeometry x="210" y="220" width="60" height="30" as="geometry" />
        </mxCell>
        <mxCell id="Ckq702j_ndM2lnB-2Poi-125" value="" style="endArrow=classic;startArrow=classic;html=1;rounded=0;strokeWidth=0.5;" parent="1" edge="1">
          <mxGeometry width="50" height="50" relative="1" as="geometry">
            <mxPoint x="280" y="230" as="sourcePoint" />
            <mxPoint x="380" y="230" as="targetPoint" />
          </mxGeometry>
        </mxCell>
        <mxCell id="Ckq702j_ndM2lnB-2Poi-126" value="&lt;font face=&quot;Times New Roman&quot; style=&quot;font-size: 10px;&quot;&gt;Future&lt;/font&gt;" style="text;html=1;align=center;verticalAlign=middle;resizable=0;points=[];autosize=1;strokeColor=none;fillColor=none;" parent="1" vertex="1">
          <mxGeometry x="305" y="220" width="50" height="30" as="geometry" />
        </mxCell>
        <mxCell id="Ckq702j_ndM2lnB-2Poi-127" value="" style="rounded=0;whiteSpace=wrap;html=1;" parent="1" vertex="1">
          <mxGeometry x="55" y="50" width="120" height="170" as="geometry" />
        </mxCell>
        <mxCell id="Ckq702j_ndM2lnB-2Poi-128" value="" style="rounded=0;whiteSpace=wrap;html=1;" parent="1" vertex="1">
          <mxGeometry x="140" y="90" width="20" height="30" as="geometry" />
        </mxCell>
        <mxCell id="Ckq702j_ndM2lnB-2Poi-130" value="" style="endArrow=none;dashed=1;html=1;rounded=0;exitX=1;exitY=1;exitDx=0;exitDy=0;entryX=0;entryY=1;entryDx=0;entryDy=0;" parent="1" source="Ckq702j_ndM2lnB-2Poi-128" target="Ckq702j_ndM2lnB-2Poi-3" edge="1">
          <mxGeometry width="50" height="50" relative="1" as="geometry">
            <mxPoint x="320" y="220" as="sourcePoint" />
            <mxPoint x="200" y="230" as="targetPoint" />
          </mxGeometry>
        </mxCell>
        <mxCell id="Ckq702j_ndM2lnB-2Poi-131" value="" style="endArrow=none;dashed=1;html=1;rounded=0;exitX=1;exitY=0;exitDx=0;exitDy=0;entryX=0;entryY=0;entryDx=0;entryDy=0;" parent="1" source="Ckq702j_ndM2lnB-2Poi-128" target="Ckq702j_ndM2lnB-2Poi-82" edge="1">
          <mxGeometry width="50" height="50" relative="1" as="geometry">
            <mxPoint x="420" y="140" as="sourcePoint" />
            <mxPoint x="460" y="240" as="targetPoint" />
          </mxGeometry>
        </mxCell>
        <mxCell id="Ckq702j_ndM2lnB-2Poi-132" value="" style="endArrow=classic;startArrow=classic;html=1;rounded=0;strokeWidth=0.5;" parent="1" edge="1">
          <mxGeometry width="50" height="50" relative="1" as="geometry">
            <mxPoint x="55" y="230" as="sourcePoint" />
            <mxPoint x="175" y="230" as="targetPoint" />
          </mxGeometry>
        </mxCell>
        <mxCell id="Ckq702j_ndM2lnB-2Poi-133" value="&lt;font face=&quot;Times New Roman&quot; style=&quot;font-size: 10px;&quot;&gt;\[N_r\]&lt;/font&gt;" style="text;html=1;align=center;verticalAlign=middle;resizable=0;points=[];autosize=1;strokeColor=none;fillColor=none;" parent="1" vertex="1">
          <mxGeometry x="90" y="220" width="50" height="30" as="geometry" />
        </mxCell>
        <mxCell id="Ckq702j_ndM2lnB-2Poi-134" value="&lt;font face=&quot;Times New Roman&quot; style=&quot;font-size: 10px;&quot;&gt;\[N_t\]&lt;/font&gt;" style="text;html=1;align=center;verticalAlign=middle;resizable=0;points=[];autosize=1;strokeColor=none;fillColor=none;rotation=-90;" parent="1" vertex="1">
          <mxGeometry x="10" y="115" width="50" height="30" as="geometry" />
        </mxCell>
        <mxCell id="Ckq702j_ndM2lnB-2Poi-135" value="" style="endArrow=classic;startArrow=classic;html=1;rounded=0;strokeWidth=0.5;" parent="1" edge="1">
          <mxGeometry width="50" height="50" relative="1" as="geometry">
            <mxPoint x="45" y="220" as="sourcePoint" />
            <mxPoint x="45" y="50" as="targetPoint" />
          </mxGeometry>
        </mxCell>
      </root>
    </mxGraphModel>
  </diagram>
</mxfile>
